<?xml version="1.0" encoding="utf-8"?>
<!-- Generator: Adobe Illustrator 19.0.0, SVG Export Plug-In . SVG Version: 6.00 Build 0)  -->
<svg version="1.1" id="Calque_1" xmlns="http://www.w3.org/2000/svg" xmlns:xlink="http://www.w3.org/1999/xlink" x="0px" y="0px"
	 viewBox="-669 288 100 100" style="enable-background:new -669 288 100 100;" xml:space="preserve">
<path d="M-615.7,347.9c7-11.8,21.5-13.3,21.5-13.3c-12.4,6.5-17.8,14.8-18.6,19.9c31.9,5.2,33.4-28,33.4-28
	C-609.7,321.1-614.5,340.6-615.7,347.9z M-629.3,325.6c0,0,0.2-10.7-7.5-17.3c0,0,8.5,3.6,12,12.5c0.4-5.4-0.4-19.5-22.7-20.7
	C-647.5,300.1-649.7,322.7-629.3,325.6z M-615.3,373.1c-2.4-8.1-10.4-41.9,11.8-82.5c0,0-31.4,32.9-22.7,82.5
	c-18.4,0.5-32.4,3-32.4,6.1c0,3.4,17.4,6.2,39,6.2c21.5,0,39-2.8,39-6.2C-580.7,376-595.8,373.4-615.3,373.1z"/>
</svg>
